<?xml version="1.0" standalone="no"?>
<!DOCTYPE svg PUBLIC "-//W3C//DTD SVG 20010904//EN"
 "http://www.w3.org/TR/2001/REC-SVG-20010904/DTD/svg10.dtd">
<svg version="1.0" xmlns="http://www.w3.org/2000/svg"
 width="959.000000pt" height="1280.000000pt" viewBox="0 0 959.000000 1280.000000"
 preserveAspectRatio="xMidYMid meet">

<g transform="translate(0.000000,1280.000000) scale(0.100000,-0.100000)"
fill="#000000" stroke="none">
<path d="M5063 8664 c3 -5 8 -205 12 -444 3 -239 10 -438 14 -443 4 -4 70 -30
147 -57 76 -27 216 -76 309 -110 94 -34 244 -88 335 -120 91 -32 307 -109 480
-170 463 -165 583 -208 1005 -354 105 -37 197 -69 205 -72 21 -8 6 -15 -115
-54 -55 -18 -111 -37 -125 -42 -14 -6 -155 -55 -315 -110 -159 -55 -346 -119
-415 -143 -69 -24 -147 -51 -175 -60 -27 -9 -59 -20 -70 -25 -11 -5 -29 -11
-40 -13 -11 -3 -65 -22 -120 -42 -116 -42 -270 -96 -370 -130 -38 -13 -128
-44 -200 -70 -71 -25 -182 -64 -245 -87 -63 -22 -152 -52 -197 -67 l-83 -26 0
-410 -1 -410 -33 95 c-74 211 -171 495 -228 665 -33 99 -66 195 -75 213 -8 18
-20 54 -28 80 -7 26 -54 166 -104 312 -50 146 -88 271 -86 278 2 7 -4 27 -14
45 -10 17 -16 38 -14 45 3 6 0 12 -7 12 -6 0 -8 4 -5 10 3 5 -1 20 -10 34 -17
25 -175 490 -175 513 0 7 -4 21 -10 31 -8 13 -118 334 -141 410 -4 11 -111 14
-598 13 -326 0 -594 -1 -595 -3 -1 -2 -14 -39 -29 -83 -14 -44 -43 -127 -63
-185 -20 -58 -44 -132 -54 -165 -10 -33 -45 -136 -78 -230 -32 -93 -98 -285
-145 -425 -155 -459 -354 -1039 -452 -1315 -123 -347 -286 -815 -317 -910 -10
-33 -23 -68 -28 -77 -6 -11 -6 -19 0 -23 11 -7 785 -5 841 2 l36 5 78 216 c43
120 127 352 187 517 61 165 130 356 154 425 25 68 48 127 52 130 4 3 20 46 36
95 15 50 47 144 71 210 23 66 66 187 95 268 29 81 61 176 70 210 15 51 100
297 125 360 4 9 10 17 14 17 3 0 20 -39 36 -87 16 -49 47 -133 68 -188 21 -55
56 -152 78 -215 23 -63 58 -160 79 -215 106 -276 280 -754 280 -768 0 -9 4
-17 9 -17 12 0 51 -111 51 -145 0 -16 8 -38 18 -49 10 -12 30 -52 45 -91 23
-61 130 -353 212 -576 l28 -76 410 -6 c226 -4 413 -5 415 -2 4 4 -104 335
-185 570 -2 6 18 18 44 27 99 34 1125 372 1558 513 1208 394 1835 601 1839
607 3 3 15 1188 12 1188 0 0 -80 27 -176 61 -175 60 -498 171 -725 248 -66 23
-129 46 -140 51 -11 5 -108 38 -215 74 -191 63 -779 264 -1015 346 -66 23
-145 50 -175 60 -94 31 -604 210 -625 219 -11 5 -69 26 -130 46 -60 21 -114
41 -120 45 -5 4 -39 16 -75 25 -98 26 -114 29 -107 19z"/>
<path d="M2220 7500 c0 -5 4 -10 9 -10 6 0 13 5 16 10 3 6 -1 10 -9 10 -9 0
-16 -4 -16 -10z"/>
<path d="M2198 7183 c7 -3 16 -2 19 1 4 3 -2 6 -13 5 -11 0 -14 -3 -6 -6z"/>
<path d="M2208 7013 c7 -3 16 -2 19 1 4 3 -2 6 -13 5 -11 0 -14 -3 -6 -6z"/>
</g>
</svg>
